<svg width="20.000000pt" height="20.000000pt" viewBox="0 0 20.000000 20.000000" xmlns="http://www.w3.org/2000/svg">
  <g transform="translate(0.000000,20.000000) scale(0.100000,-0.100000)" fill="#000c37" stroke="none">
    <path d="M3 138 l-1 -63 7 25 7 25 8 -62 7 -63 24 0 25 0 0 20 0 20 34 0 34 0
-5 -20 -5 -20 25 0 24 0 7 37 6 38 0 48 0 47 -75 0 -75 0 0 15 0 15 -23 0 -23
0 -1 -62z" />
  </g>
  <g transform="translate(0.000000,20.000000) scale(0.100000,-0.100000)" fill="#ffffff" stroke="none">
    <path d="M37 181 l5 -20 79 -3 79 -3 0 23 0 22 -84 0 -84 0 5 -19z" />
    <path d="M0 97 l0 -97 20 0 20 0 0 15 0 15 15 0 15 0 0 -15 0 -15 45 0 45 0
-3 11 -2 12 13 4 12 5 0 -16 0 -16 10 0 10 0 -1 53 -1 52 -7 -25 -7 -25 -74 0
-75 0 -8 60 -8 60 -10 10 -9 9 0 -97z" />
    <path d="M123 113 l17 -5 13 5 12 5 -30 0 -30 0 18 -5z" />
  </g>
  <g transform="translate(0.000000,20.000000) scale(0.100000,-0.100000)" fill="#008000" stroke="none" />
  <g transform="translate(0.000000,20.000000) scale(0.100000,-0.100000)" fill="#808000" stroke="none" />
</svg>