<?xml version="1.0" encoding="utf-8"?>
<!-- Created by UniConvertor 2.0rc5 (https://sk1project.net/) -->
<svg xmlns="http://www.w3.org/2000/svg" height="20.0px" width="20.0px" version="1.1" xmlns:xlink="http://www.w3.org/1999/xlink" id="6a316a50-2ed2-11ed-a94f-a8a1598cb569">

<g>
	<path style="fill:#010d37;" d="M 0.0,0.0 L 0.0,1.0 C 3.6682,4.5922 1.0807,11.1822 4.6034,13.9722 10.1876,18.395 25.8366,11.3938 18.3573,5.0278 15.4297,2.536 7.6406,4.0 4.0,4.0 3.1613,1.3735 2.6265,0.8387 0.0,0.0 Z" />
	<path style="fill:#8892a4;" d="M 3.0,0.0 L 4.0,1.0 3.0,0.0 Z" />
	<path style="fill:#ffffff;" d="M 4.0,0.0 L 4.0,3.0 C 9.3999,3.0 14.718,2.7424 20.0,4.0 L 20.0,0.0 4.0,0.0 Z" />
	<path style="fill:#8892a4;" d="M 0.0,1.0 L 1.0,2.0 0.0,1.0 Z" />
	<path style="fill:#475674;" d="M 1.0,1.0 L 2.0,2.0 1.0,1.0 Z" />
	<path style="fill:#ffffff;" d="M 0.0,2.0 L 0.0,20.0 C 2.7386,19.7893 3.422,19.6975 4.0,17.0 L 7.0,17.0 7.0,20.0 C 10.5105,20.0 14.1456,20.9871 15.0,17.0 L 18.0,17.0 C 18.4057,19.0924 18.2167,19.0198 20.0,20.0 L 20.0,13.0 19.0,13.0 C 8.944,22.4226 2.0808,11.7627 2.0,2.0 L 0.0,2.0 Z" />
	<path style="fill:#3b4b6a;" d="M 2.3333,2.6667 C 2.2778,2.7222 2.2222,3.7778 2.6667,3.3333 2.7222,3.2778 2.7778,2.2222 2.3333,2.6667 Z" />
	<path style="fill:#e1e3e7;" d="M 4.0,3.0 L 4.0,4.0 19.0,4.0 C 14.5286,2.1237 8.8166,3.0 4.0,3.0 Z" />
	<path style="fill:#66748c;" d="M 2.0,4.0 L 2.0,7.0 3.0,7.0 C 2.7488,5.5484 2.6848,5.2484 2.0,4.0 Z" />
	<path style="fill:#838fa1;" d="M 19.0,4.0 L 20.0,5.0 19.0,4.0 Z" />
	<path style="fill:#a7afbd;" d="M 2.0,7.0 L 2.0,10.0 3.0,10.0 C 2.7488,8.5484 2.6848,8.2484 2.0,7.0 Z" />
	<path style="fill:#3b4b6a;" d="M 12.0,7.0 L 12.0,8.0 15.0,8.0 C 13.7516,7.3152 13.4516,7.2512 12.0,7.0 Z" />
	<path style="fill:#838fa1;" d="M 11.0,8.0 L 12.0,9.0 11.0,8.0 Z" />
	<path style="fill:#ffffff;" d="M 12.0,8.0 L 12.0,9.0 15.0,9.0 C 13.7516,8.3152 13.4516,8.2512 12.0,8.0 Z" />
	<path style="fill:#8892a4;" d="M 15.0,8.0 L 16.0,9.0 15.0,8.0 Z" />
	<path style="fill:#717d93;" d="M 19.0,8.0 L 19.0,11.0 20.0,11.0 C 19.7488,9.5484 19.6848,9.2484 19.0,8.0 Z" />
	<path style="fill:#2a3e60;" d="M 12.0,9.0 L 12.0,10.0 15.0,10.0 C 13.7516,9.3152 13.4516,9.2512 12.0,9.0 Z" />
	<path style="fill:#e1e3e7;" d="M 19.3333,11.6667 C 19.2778,11.7222 19.2222,12.7778 19.6667,12.3333 19.7222,12.2778 19.7778,11.2222 19.3333,11.6667 Z" />
	<path style="fill:#b1b7c3;" d="M 3.0,14.0 L 4.0,15.0 3.0,14.0 Z" />
	<path style="fill:#a7afbd;" d="M 18.0,14.0 L 19.0,15.0 18.0,14.0 Z" />
	<path style="fill:#b1b7c3;" d="M 5.0,15.0 L 5.0,16.0 17.0,16.0 C 13.3025,14.4485 8.9832,15.0 5.0,15.0 Z" />
	<path style="fill:#3f516d;" d="M 4.0,17.0 L 5.0,18.0 4.0,17.0 Z" />
	<path style="fill:#010d37;" d="M 5.0,17.0 L 4.0,18.0 4.0,19.0 5.0,20.0 6.0,20.0 7.0,19.0 7.0,18.0 5.0,17.0 Z" />
	<path style="fill:#66748c;" d="M 6.0,17.0 L 7.0,18.0 6.0,17.0 Z" />
	<path style="fill:#838fa1;" d="M 15.0,17.0 L 16.0,18.0 15.0,17.0 Z" />
	<path style="fill:#010d37;" d="M 16.0,17.0 L 15.0,18.0 15.0,19.0 16.0,20.0 17.0,20.0 18.0,19.0 18.0,18.0 16.0,17.0 Z" />
	<path style="fill:#2a3e60;" d="M 17.0,17.0 L 18.0,18.0 17.0,17.0 Z" />
	<path style="fill:#57657f;" d="M 4.0,19.0 L 5.0,20.0 4.0,19.0 Z" />
	<path style="fill:#7d879b;" d="M 6.0,19.0 L 7.0,20.0 6.0,19.0 Z" />
	<path style="fill:#939dad;" d="M 15.0,19.0 L 16.0,20.0 15.0,19.0 Z" />
	<path style="fill:#475674;" d="M 17.0,19.0 L 18.0,20.0 17.0,19.0 Z" />
</g>
</svg>