<svg width="112.000000pt" height="30.000000pt" viewBox="0 0 112.000000 30.000000" xmlns="http://www.w3.org/2000/svg">
  <g transform="translate(0.000000,30.000000) scale(0.100000,-0.100000)" fill="#00bfcf" stroke="none">
    <path d="M457 293 c-4 -3 -33 -10 -64 -14 -31 -4 -68 -16 -82 -26 -14 -10 -37
-42 -51 -70 l-24 -51 -81 -4 -80 -4 -12 9 -13 9 0 64 0 64 -25 0 -25 0 0 -100
0 -101 18 -7 c9 -4 74 -7 145 -6 l127 0 0 -28 0 -28 415 0 415 0 0 55 0 55
-19 0 -20 0 -6 18 -5 19 -148 6 c-81 4 -175 10 -209 13 l-63 7 0 22 c0 12 -14
41 -30 63 l-30 42 -63 0 c-35 0 -67 -3 -70 -7z" />
    <path d="M1113 195 c0 -27 2 -38 4 -22 2 15 2 37 0 50 -2 12 -4 0 -4 -28z" />
  </g>
  <g transform="translate(0.000000,30.000000) scale(0.100000,-0.100000)" fill="#fefefe" stroke="none">
    <path d="M1 258 l2 -43 4 23 c2 12 11 22 19 22 l14 0 0 -64 0 -64 13 -10 13
-11 90 5 c49 3 90 9 92 14 1 4 13 27 25 51 12 23 35 52 50 63 l28 20 43 1 44
1 23 17 24 16 -242 0 -243 1 1 -42z" />
    <path d="M605 254 c19 -25 35 -56 35 -68 l0 -23 63 -7 c34 -3 128 -9 210 -13
l147 -6 1 -11 c1 -6 1 -14 0 -18 0 -5 10 -8 23 -8 l25 0 4 -32 c2 -18 5 27 5
100 l2 132 -275 0 -275 0 35 -46z" />
    <path d="M1 78 l-1 -78 150 0 150 0 0 36 0 35 -102 -6 c-57 -4 -121 -3 -143 2
l-40 9 -6 39 -6 40 -2 -77z" />
  </g>
  <g transform="translate(0.000000,30.000000) scale(0.100000,-0.100000)" fill="#149aaf" stroke="none">
    <path d="M39 255 c-3 -5 -4 -21 -3 -35 1 -14 -3 -28 -10 -32 l-11 -8 12 0 11
0 -2 -24 -3 -25 14 -5 c8 -3 11 -10 8 -16 l-6 -10 15 6 16 6 0 -11 0 -12 14
13 14 13 -27 5 -26 5 -5 70 c-3 39 -8 66 -11 60z" />
    <path d="M640 150 c0 -17 -6 -46 -14 -65 -8 -18 -23 -38 -34 -44 -12 -6 -40
-11 -63 -11 l-42 0 -35 37 -35 38 11 -22 c7 -12 24 -31 38 -42 l27 -21 41 0
42 0 22 16 c12 8 26 23 32 33 5 10 13 37 19 60 l9 41 -9 6 -9 5 0 -31z" />
    <path d="M794 151 c4 -5 0 -12 -6 -14 l-13 -5 11 -1 c5 -1 19 6 30 14 l19 14
-23 1 c-13 0 -21 -4 -18 -9z" />
    <path d="M295 130 l-6 -10 21 0 21 0 -6 10 c-3 6 -10 10 -15 10 -5 0 -12 -4
-15 -10z" />
    <path d="M197 114 l6 -16 7 12 8 12 4 -13 4 -13 7 17 6 17 -24 0 -24 0 6 -16z" />
    <path d="M780 109 c-25 -3 34 -6 130 -6 96 0 155 2 130 4 -25 1 -83 4 -130 5
-47 2 -105 0 -130 -3z" />
    <path d="M330 83 c-19 -3 -39 -8 -43 -13 l-9 -8 11 -6 c6 -4 11 -2 11 3 0 6
12 11 28 12 15 1 38 5 52 9 l25 8 -20 -1 c-11 0 -36 -2 -55 -4z" />
  </g>
  <g transform="translate(0.000000,30.000000) scale(0.100000,-0.100000)" fill="#1dc6d4" stroke="none">
    <path d="M452 284 l-22 -15 -13 7 -12 7 12 -13 12 -13 15 12 c8 7 27 16 43 21
l28 8 -20 1 c-11 1 -31 -6 -43 -15z" />
    <path d="M803 273 c-7 -2 -13 -11 -13 -20 l0 -14 17 3 c10 2 19 11 21 21 2 9
0 17 -5 16 -4 0 -14 -3 -20 -6z" />
    <path d="M908 143 c28 -2 76 -2 105 0 28 2 5 3 -53 3 -58 0 -81 -1 -52 -3z" />
    <path d="M908 3 c17 -2 47 -2 65 0 17 2 3 4 -33 4 -36 0 -50 -2 -32 -4z" />
  </g>
  <g transform="translate(0.000000,30.000000) scale(0.100000,-0.100000)" fill="#6ad8e2" stroke="none">
    <path d="M764 273 l-52 -4 -16 -18 -16 -18 6 -17 6 -16 62 2 61 2 -50 3 c-27
2 -54 9 -60 14 l-10 10 19 15 c11 8 32 14 48 14 15 0 28 -5 28 -11 0 -6 5 -9
12 -7 6 2 12 12 14 21 1 9 2 16 1 15 -1 -1 -25 -3 -53 -5z" />
    <path d="M38 230 c2 -22 6 -40 8 -40 2 0 4 18 4 40 0 22 -3 40 -8 40 -4 0 -6
-18 -4 -40z" />
    <path d="M312 243 l-28 -28 26 20 c14 11 29 23 35 27 5 5 6 8 2 8 -4 0 -19
-12 -35 -27z" />
    <path d="M820 185 c0 -8 5 -15 10 -15 6 0 10 7 10 15 0 8 -4 15 -10 15 -5 0
-10 -7 -10 -15z" />
    <path d="M553 3 c9 -2 25 -2 35 0 9 3 1 5 -18 5 -19 0 -27 -2 -17 -5z" />
  </g>
  <g transform="translate(0.000000,30.000000) scale(0.100000,-0.100000)" fill="#91e1e8" stroke="none">
    <path d="M0 261 c0 -4 11 -6 25 -3 14 2 25 6 25 8 0 2 -11 4 -25 4 -14 0 -25
-4 -25 -9z" />
    <path d="M698 251 c-10 -10 -15 -20 -12 -24 3 -3 14 3 25 14 10 10 19 21 19
24 0 3 -3 5 -7 4 -5 0 -16 -8 -25 -18z" />
    <path d="M251 158 c-1 -9 -9 -22 -18 -27 -10 -6 -13 -11 -7 -11 6 0 17 7 24
15 6 8 10 20 7 27 l-5 13 -1 -17z" />
    <path d="M290 18 l0 -18 23 1 22 1 -15 5 c-8 3 -18 11 -22 17 l-8 11 0 -17z" />
    <path d="M503 3 c9 -2 25 -2 35 0 9 3 1 5 -18 5 -19 0 -27 -2 -17 -5z" />
    <path d="M738 3 c18 -2 45 -2 60 0 15 2 0 4 -33 4 -33 0 -45 -2 -27 -4z" />
  </g>
  <g transform="translate(0.000000,30.000000) scale(0.100000,-0.100000)" fill="#45cfdb" stroke="none">
    <path d="M580 287 c8 -7 21 -19 29 -27 l13 -15 -10 21 c-7 12 -19 24 -29 28
l-18 6 15 -13z" />
    <path d="M690 223 c0 -14 3 -23 7 -19 4 3 7 15 8 26 1 11 -2 20 -7 20 -4 0 -8
-12 -8 -27z" />
    <path d="M613 3 c15 -2 37 -2 50 0 12 2 0 4 -28 4 -27 0 -38 -2 -22 -4z" />
  </g>
  <g transform="translate(0.000000,30.000000) scale(0.100000,-0.100000)" fill="#e1f6f8" stroke="none">
    <path d="M818 173 c2 -12 8 -23 13 -23 5 0 8 11 7 23 -1 13 -7 24 -13 24 l-12
0 5 -24z" />
    <path d="M178 123 c12 -2 30 -2 40 0 9 3 -1 5 -23 4 l-40 0 23 -4z" />
  </g>
  <g transform="translate(0.000000,30.000000) scale(0.100000,-0.100000)" fill="#b5e8ed" stroke="none">
    <path d="M816 164 l-20 -14 16 0 c9 0 20 5 23 11 4 6 5 12 3 14 -1 2 -12 -3
-22 -11z" />
    <path d="M423 3 c15 -2 39 -2 55 0 15 2 2 4 -28 4 -30 0 -43 -2 -27 -4z" />
  </g>
  <g transform="translate(0.000000,30.000000) scale(0.100000,-0.100000)" fill="#6eb3c1" stroke="none" />
  <g transform="translate(0.000000,30.000000) scale(0.100000,-0.100000)" fill="#48a9b9" stroke="none" />
  <g transform="translate(0.000000,30.000000) scale(0.100000,-0.100000)" fill="#2b385b" stroke="none" />
</svg>