<?xml version="1.0" encoding="utf-8"?>
<!-- Created by UniConvertor 2.0rc5 (https://sk1project.net/) -->
<svg xmlns="http://www.w3.org/2000/svg" height="20.0px" width="16.0px" version="1.1" xmlns:xlink="http://www.w3.org/1999/xlink" id="6b98fc14-2ed2-11ed-b3db-a8a1598cb569">

<g>
	<path style="fill:#ffffff;" d="M 0.0,0.0 L 0.0,15.0 C 5.6312,12.6139 10.3688,12.6139 16.0,15.0 L 16.0,0.0 11.0,0.0 C 16.9188,12.3687 -0.9188,12.3687 5.0,0.0 L 0.0,0.0 Z" />
	<path style="fill:#9ea6b5;" d="M 5.0,0.0 L 6.0,1.0 5.0,0.0 Z" />
	<path style="fill:#2b3f61;" d="M 6.0,0.0 L 7.0,1.0 6.0,0.0 Z" />
	<path style="fill:#010d37;" d="M 7.054,0.9707 C 1.3451,2.2468 3.1084,10.6924 8.946,9.6235 14.8075,8.5502 12.6262,-0.2749 7.054,0.9707 Z" />
	<path style="fill:#2b3f61;" d="M 9.0,0.0 L 10.0,1.0 9.0,0.0 Z" />
	<path style="fill:#9ea6b5;" d="M 10.0,0.0 L 11.0,1.0 10.0,0.0 Z" />
	<path style="fill:#4b5b77;" d="M 4.0,1.0 L 5.0,2.0 4.0,1.0 M 11.0,1.0 L 12.0,2.0 11.0,1.0 Z" />
	<path style="fill:#798599;" d="M 3.0,2.0 L 4.0,3.0 3.0,2.0 M 12.0,2.0 L 13.0,3.0 12.0,2.0 Z" />
	<path style="fill:#b3bac7;" d="M 2.0,4.0 L 2.0,7.0 3.0,7.0 C 2.7488,5.5484 2.6848,5.2484 2.0,4.0 M 13.0,4.0 L 13.0,7.0 14.0,7.0 C 13.7488,5.5484 13.6848,5.2484 13.0,4.0 Z" />
	<path style="fill:#c1c5cf;" d="M 3.0,8.0 L 4.0,9.0 3.0,8.0 M 12.0,8.0 L 13.0,9.0 12.0,8.0 Z" />
	<path style="fill:#b3bac7;" d="M 4.0,9.0 L 5.0,10.0 4.0,9.0 M 11.0,9.0 L 12.0,10.0 11.0,9.0 Z" />
	<path style="fill:#9ea6b5;" d="M 6.0,10.0 L 7.0,11.0 6.0,10.0 Z" />
	<path style="fill:#6d7991;" d="M 7.6667,10.3333 C 7.2222,10.7778 8.2778,10.7222 8.3333,10.6667 8.7778,10.2222 7.7222,10.2778 7.6667,10.3333 Z" />
	<path style="fill:#9ea6b5;" d="M 9.0,10.0 L 10.0,11.0 9.0,10.0 Z" />
	<path style="fill:#ccd0d8;" d="M 2.0,13.0 L 3.0,14.0 2.0,13.0 Z" />
	<path style="fill:#586680;" d="M 3.6667,13.3333 C 3.2222,13.7778 4.2778,13.7222 4.3333,13.6667 4.7778,13.2222 3.7222,13.2778 3.6667,13.3333 Z" />
	<path style="fill:#23395b;" d="M 5.0,13.0 L 5.0,14.0 11.0,14.0 C 8.9479,13.1258 7.2528,13.0472 5.0,13.0 Z" />
	<path style="fill:#8791a5;" d="M 11.6667,13.3333 C 11.2222,13.7778 12.2778,13.7222 12.3333,13.6667 12.7778,13.2222 11.7222,13.2778 11.6667,13.3333 Z" />
	<path style="fill:#ccd0d8;" d="M 13.0,13.0 L 14.0,14.0 13.0,13.0 Z" />
	<path style="fill:#354867;" d="M 1.0,14.0 L 0.0,16.0 C 1.2627,15.0287 1.3919,15.3063 1.0,14.0 Z" />
	<path style="fill:#010d37;" d="M 0.0,18.0 C 5.5821,20.3555 10.3687,20.1089 16.0,18.0 12.8705,12.3246 3.1295,12.3246 0.0,18.0 Z" />
	<path style="fill:#394b69;" d="M 14.0,14.0 L 15.0,15.0 14.0,14.0 M 15.0,15.0 L 16.0,16.0 15.0,15.0 Z" />
	<path style="fill:#ccd0d8;" d="M 0.0,18.0 L 1.0,19.0 0.0,18.0 M 15.0,18.0 L 16.0,19.0 15.0,18.0 Z" />
	<path style="fill:#f7f7f9;" d="M 0.6667,19.3333 C 0.2222,19.7778 1.2778,19.7222 1.3333,19.6667 1.7778,19.2222 0.7222,19.2778 0.6667,19.3333 Z" />
	<path style="fill:#9ea6b5;" d="M 2.0,19.0 L 3.0,20.0 2.0,19.0 Z" />
	<path style="fill:#586680;" d="M 3.0,19.0 L 4.0,20.0 3.0,19.0 M 11.6667,19.3333 C 11.2222,19.7778 12.2778,19.7222 12.3333,19.6667 12.7778,19.2222 11.7222,19.2778 11.6667,19.3333 Z" />
	<path style="fill:#9ea6b5;" d="M 13.0,19.0 L 14.0,20.0 13.0,19.0 Z" />
	<path style="fill:#ffffff;" d="M 14.6667,19.3333 C 14.2222,19.7778 15.2778,19.7222 15.3333,19.6667 15.7778,19.2222 14.7222,19.2778 14.6667,19.3333 Z" />
</g>
</svg>