<svg width="16.000000pt" height="20.000000pt" viewBox="0 0 16.000000 20.000000" xmlns="http://www.w3.org/2000/svg">
  <g transform="translate(0.000000,20.000000) scale(0.100000,-0.100000)" fill="#000c37" stroke="none">
    <path d="M27 194 c-4 -4 -7 -24 -7 -45 0 -27 6 -42 21 -52 20 -15 20 -15 -10
-22 -27 -6 -31 -11 -31 -41 0 -34 0 -34 80 -34 80 0 80 0 80 34 0 30 -4 35
-31 41 -30 7 -30 7 -9 22 17 12 20 23 18 56 -3 42 -3 42 -53 45 -28 2 -54 0
-58 -4z" />
  </g>
  <g transform="translate(0.000000,20.000000) scale(0.100000,-0.100000)" fill="#ffffff" stroke="none">
    <path d="M0 126 c0 -73 0 -73 40 -63 28 8 52 8 80 0 40 -10 40 -10 40 63 0 74
0 74 -32 74 -27 -1 -30 -2 -15 -11 10 -6 17 -22 17 -39 0 -20 -8 -35 -25 -46
-23 -15 -27 -15 -50 0 -17 11 -25 26 -25 46 0 17 7 33 18 39 14 9 11 10 -15
11 -33 0 -33 0 -33 -74z" />
    <path d="M0 10 c0 -6 7 -10 15 -10 8 0 15 2 15 4 0 2 -7 6 -15 10 -8 3 -15 1
-15 -4z" />
    <path d="M140 10 c-13 -8 -12 -10 3 -10 9 0 17 5 17 10 0 12 -1 12 -20 0z" />
  </g>
  <g transform="translate(0.000000,20.000000) scale(0.100000,-0.100000)" fill="#000000" stroke="none" />
  <g transform="translate(0.000000,20.000000) scale(0.100000,-0.100000)" fill="#000000" stroke="none" />
  <g transform="translate(0.000000,20.000000) scale(0.100000,-0.100000)" fill="#000000" stroke="none" />
  <g transform="translate(0.000000,20.000000) scale(0.100000,-0.100000)" fill="#000000" stroke="none" />
  <g transform="translate(0.000000,20.000000) scale(0.100000,-0.100000)" fill="#000000" stroke="none" />
  <g transform="translate(0.000000,20.000000) scale(0.100000,-0.100000)" fill="#000000" stroke="none" />
  <g transform="translate(0.000000,20.000000) scale(0.100000,-0.100000)" fill="#000000" stroke="none" />
  <g transform="translate(0.000000,20.000000) scale(0.100000,-0.100000)" fill="#ffffff" stroke="none" />
  <g transform="translate(0.000000,20.000000) scale(0.100000,-0.100000)" fill="#00ffff" stroke="none" />
  <g transform="translate(0.000000,20.000000) scale(0.100000,-0.100000)" fill="#ff00ff" stroke="none" />
  <g transform="translate(0.000000,20.000000) scale(0.100000,-0.100000)" fill="#0000ff" stroke="none" />
  <g transform="translate(0.000000,20.000000) scale(0.100000,-0.100000)" fill="#ffff00" stroke="none" />
  <g transform="translate(0.000000,20.000000) scale(0.100000,-0.100000)" fill="#00ff00" stroke="none" />
  <g transform="translate(0.000000,20.000000) scale(0.100000,-0.100000)" fill="#ff0000" stroke="none" />
  <g transform="translate(0.000000,20.000000) scale(0.100000,-0.100000)" fill="#c0c0c0" stroke="none" />
  <g transform="translate(0.000000,20.000000) scale(0.100000,-0.100000)" fill="#808080" stroke="none" />
  <g transform="translate(0.000000,20.000000) scale(0.100000,-0.100000)" fill="#008080" stroke="none" />
  <g transform="translate(0.000000,20.000000) scale(0.100000,-0.100000)" fill="#800080" stroke="none" />
  <g transform="translate(0.000000,20.000000) scale(0.100000,-0.100000)" fill="#000080" stroke="none" />
  <g transform="translate(0.000000,20.000000) scale(0.100000,-0.100000)" fill="#808000" stroke="none" />
  <g transform="translate(0.000000,20.000000) scale(0.100000,-0.100000)" fill="#008000" stroke="none" />
  <g transform="translate(0.000000,20.000000) scale(0.100000,-0.100000)" fill="#000000" stroke="none" />
  <g transform="translate(0.000000,20.000000) scale(0.100000,-0.100000)" fill="#000000" stroke="none" />
</svg>