<svg width="20.000000pt" height="20.000000pt" viewBox="0 0 20.000000 20.000000" xmlns="http://www.w3.org/2000/svg">
  <g transform="translate(0.000000,20.000000) scale(0.100000,-0.100000)" fill="#000c37" stroke="none">
    <path d="M17 182 c-12 -13 -17 -37 -17 -75 l0 -57 24 -16 c16 -10 41 -15 70
-13 26 2 51 -2 58 -9 18 -18 48 -15 48 6 0 10 -5 23 -12 30 -7 7 -11 33 -9 61
l2 50 -20 20 -21 21 -53 0 -54 0 -16 -18z" />
    <path d="M193 120 c0 -25 2 -35 4 -22 2 12 2 32 0 45 -2 12 -4 2 -4 -23z" />
    <path d="M0 10 c0 -7 3 -10 7 -7 3 4 3 10 0 14 -4 3 -7 0 -7 -7z" />
  </g>
  <g transform="translate(0.000000,20.000000) scale(0.100000,-0.100000)" fill="#ffffff" stroke="none">
    <path d="M0 168 l0 -32 15 21 c9 13 23 27 33 32 l17 10 -32 1 -33 0 0 -32z" />
    <path d="M125 188 c78 -42 49 -158 -40 -158 -25 0 -44 8 -60 25 l-25 24 0 -39
0 -40 92 0 91 0 -16 18 c-22 24 -9 37 15 15 l18 -16 0 91 0 92 -47 0 -48 -1
20 -11z" />
  </g>
  <g transform="translate(0.000000,20.000000) scale(0.100000,-0.100000)" fill="#000000" stroke="none" />
  <g transform="translate(0.000000,20.000000) scale(0.100000,-0.100000)" fill="#000000" stroke="none" />
  <g transform="translate(0.000000,20.000000) scale(0.100000,-0.100000)" fill="#000000" stroke="none" />
  <g transform="translate(0.000000,20.000000) scale(0.100000,-0.100000)" fill="#000000" stroke="none" />
  <g transform="translate(0.000000,20.000000) scale(0.100000,-0.100000)" fill="#000000" stroke="none" />
  <g transform="translate(0.000000,20.000000) scale(0.100000,-0.100000)" fill="#000000" stroke="none" />
  <g transform="translate(0.000000,20.000000) scale(0.100000,-0.100000)" fill="#000000" stroke="none" />
  <g transform="translate(0.000000,20.000000) scale(0.100000,-0.100000)" fill="#ffffff" stroke="none" />
  <g transform="translate(0.000000,20.000000) scale(0.100000,-0.100000)" fill="#00ffff" stroke="none" />
  <g transform="translate(0.000000,20.000000) scale(0.100000,-0.100000)" fill="#ff00ff" stroke="none" />
  <g transform="translate(0.000000,20.000000) scale(0.100000,-0.100000)" fill="#0000ff" stroke="none" />
  <g transform="translate(0.000000,20.000000) scale(0.100000,-0.100000)" fill="#ffff00" stroke="none" />
  <g transform="translate(0.000000,20.000000) scale(0.100000,-0.100000)" fill="#00ff00" stroke="none" />
  <g transform="translate(0.000000,20.000000) scale(0.100000,-0.100000)" fill="#ff0000" stroke="none" />
  <g transform="translate(0.000000,20.000000) scale(0.100000,-0.100000)" fill="#c0c0c0" stroke="none" />
  <g transform="translate(0.000000,20.000000) scale(0.100000,-0.100000)" fill="#808080" stroke="none" />
  <g transform="translate(0.000000,20.000000) scale(0.100000,-0.100000)" fill="#008080" stroke="none" />
  <g transform="translate(0.000000,20.000000) scale(0.100000,-0.100000)" fill="#800080" stroke="none" />
  <g transform="translate(0.000000,20.000000) scale(0.100000,-0.100000)" fill="#000080" stroke="none" />
  <g transform="translate(0.000000,20.000000) scale(0.100000,-0.100000)" fill="#808000" stroke="none" />
  <g transform="translate(0.000000,20.000000) scale(0.100000,-0.100000)" fill="#008000" stroke="none" />
  <g transform="translate(0.000000,20.000000) scale(0.100000,-0.100000)" fill="#000000" stroke="none" />
  <g transform="translate(0.000000,20.000000) scale(0.100000,-0.100000)" fill="#000000" stroke="none" />
</svg>