<?xml version="1.0" encoding="utf-8"?>
<!-- Created by UniConvertor 2.0rc5 (https://sk1project.net/) -->
<svg xmlns="http://www.w3.org/2000/svg" height="19.0px" width="19.0px" version="1.1" xmlns:xlink="http://www.w3.org/1999/xlink" id="ea881c40-2ed1-11ed-ae70-a8a1598cb569">

<g>
	<path style="fill:#ffffff;" d="M 0.0,0.0 L 0.0,4.0 1.0,4.0 C 2.1034,2.5434 2.5434,2.1034 4.0,1.0 2.494,0.317 1.6852,0.1741 0.0,0.0 Z" />
	<path style="fill:#010d37;" d="M 4.1088,0.7431 C -4.0584,4.2073 1.2773,18.4333 9.9807,15.2423 19.4905,11.7556 14.0515,-3.4743 4.1088,0.7431 Z" />
	<path style="fill:#ffffff;" d="M 11.0,0.0 L 11.0,1.0 C 19.9211,8.8726 8.8619,20.9105 1.0,11.0 L 0.0,11.0 0.0,19.0 17.0,19.0 15.0,15.0 19.0,17.0 19.0,0.0 11.0,0.0 Z" />
	<path style="fill:#010f39;" d="M 15.0,15.0 C 15.9357,16.9486 16.3924,17.5502 18.0,19.0 L 19.0,18.0 C 17.5502,16.3924 16.9486,15.9357 15.0,15.0 Z" />
	<path style="fill:#ffffff;" d="M 18.0,18.0 L 19.0,19.0 18.0,18.0 Z" />
</g>
</svg>